<svg class="artifact-link-svg" version="1.2" xmlns="http://www.w3.org/2000/svg" viewBox="0 0 385.8 110.3"><path d="M230.3 51.7c-1.7-12.7-11.9-22.9-30.4-22.9-18.1 0-28.8 9.8-28.8 21.8 0 18.1 17.5 19.4 29.2 22.3 11 2.7 21.1 3.3 21.1 14.5 0 5.1-5.1 11.9-18.2 11.9-17.8 0-21.7-7.3-22.8-15.2h-12.1c1.5 15.5 12.4 25.7 34.9 25.7 17.5 0 30.3-9.2 30.3-23.2 0-19-15.5-21.2-29.2-24.6-10.7-2.6-21.1-3.3-21.1-12.4 0-6 5.9-10.4 16.7-10.4 13.5 0 16.9 6.7 18.3 12.4h12.1zM278.9 39.3c14.5 0 23.8 10.2 23.8 22.6H254c0-12.3 10.4-22.6 24.9-22.6m.1 60c-16.7 0-25-13-25-26.8h60.7c0-27.3-11.7-43.7-35.9-43.7-22.4 0-36.9 14.9-36.9 40.5 0 24.1 14.2 40.5 37.5 40.5 19.1 0 30.1-11.4 34-25.8h-12.1c-1.2 5.3-6.9 15.3-22.3 15.3M358.3 39.3V28.8h-15.1V12h-12.1v16.8h-11.3v10.5h11.3v49.6c0 15.7 7.8 19.7 18.1 19.7 3.2 0 6.3-.3 9-.9V97.2c-10.2.8-15.1-.8-15.1-9.5V39.3h15.2zM124.8 39.3c14.5 0 23.8 10.2 23.8 22.6H99.9c0-12.3 10.4-22.6 24.9-22.6m.1 60c-16.7 0-25-13-25-26.8h60.7c0-27.3-11.7-43.7-35.9-43.7-22.4 0-36.9 14.9-36.9 40.5 0 24.1 14.2 40.5 37.5 40.5 19.1 0 30.1-11.4 34-25.8h-12.1c-1.2 5.3-6.9 15.3-22.3 15.3M13.6 12.1h27c11.1 0 25.2 1.4 25.2 20 0 18.7-14 20-25.2 20h-27v-40zM0 107.7h13.6V64.2h33.5l18.5 43.5h14.7l-20.6-48c12-4 19.6-14.5 19.6-29.1C79.2 11.4 64.9 0 43.7 0H0v107.7zM377.6 108.6c4.3 0 7.8-3.5 7.8-7.8s-3.5-7.8-7.8-7.8-7.8 3.5-7.8 7.8c.1 4.3 3.5 7.8 7.8 7.8" fill="black"></path></svg>